<svg xmlns="http://www.w3.org/2000/svg" width="512" height="512" viewBox="0 0 108 108">
  <!-- Background - WhatsApp dark green -->
  <rect width="108" height="108" rx="24" fill="#075E54"/>

  <!-- Shield body - white outline -->
  <path d="M54,20 L28,32 L28,53 C28,69.5 39,84.5 54,88 C69,84.5 80,69.5 80,53 L80,32 Z" fill="#FFFFFF"/>

  <!-- Shield inner fill - light green tint -->
  <path d="M54,23.5 L31,34 L31,53 C31,67.8 41,81.5 54,85 C67,81.5 77,67.8 77,53 L77,34 Z" fill="#E8F5E9"/>

  <!-- WhatsApp-style chat bubble with phone handset -->
  <path d="M54,38 C47,38 41,43 41,49.5 C41,52.3 42.1,54.8 43.8,56.8 L42,63 L48.5,61.2 C50.2,61.9 52.1,62.3 54,62.3 C61,62.3 67,57.3 67,50.8 C67,44.3 61,39 54,39 Z" fill="#25D366"/>

  <!-- Phone handset inside bubble -->
  <path d="M49.2,45.5 C49,45.1 48.5,45 48.1,45.2 L47,45.9 C46.3,46.3 46,47.1 46.2,47.9 C46.7,49.5 47.8,51.8 49.8,53.8 C51.8,55.8 54.1,56.9 55.7,57.4 C56.5,57.6 57.3,57.3 57.7,56.6 L58.4,55.5 C58.6,55.1 58.5,54.6 58.1,54.4 L56.2,53.2 C55.8,53 55.3,53.1 55.1,53.4 L54.5,54.2 C54.3,54.4 54,54.5 53.7,54.3 C52.8,53.9 51.2,52.8 50.5,51.5 C50.3,51.1 50.3,50.7 50.6,50.5 L51.3,49.9 C51.6,49.6 51.7,49.2 51.5,48.8 Z" fill="#FFFFFF"/>

  <!-- Save/download checkmark badge -->
  <circle cx="62" cy="67" r="7" fill="#FFFFFF" stroke="#075E54" stroke-width="1"/>
  <circle cx="62" cy="67" r="5.5" fill="#25D366"/>
  <path d="M59.5,67 L61.2,68.7 L64.5,65.3" stroke="#FFFFFF" stroke-width="1.8" fill="none" stroke-linecap="round" stroke-linejoin="round"/>
</svg>
